HIERARCHY
ROOT Hips
{
    OFFSET 0.000000 0.000000 0.000000
    CHANNELS 6 Xposition Yposition Zposition Zrotation Xrotation Yrotation
    JOINT Spine
    {
        OFFSET -0.000000 14.517291 0.000000
        CHANNELS 3 Zrotation Xrotation Yrotation
        JOINT Spine1
        {
            OFFSET -0.000000 37.558300 0.000000
            CHANNELS 3 Zrotation Xrotation Yrotation
            JOINT Neck
            {
                OFFSET -0.000000 37.404057 3.400369
                CHANNELS 3 Zrotation Xrotation Yrotation
                JOINT Head
                {
                    OFFSET -0.000000 24.785618 -3.540803
                    CHANNELS 3 Zrotation Xrotation Yrotation
                    End Site
                    {
                        OFFSET -0.000000 35.408028 0.000000
                    }
                }
            }
            JOINT LeftShoulder
            {
                OFFSET 6.992933 33.973492 -0.192664
                CHANNELS 3 Zrotation Xrotation Yrotation
                JOINT LeftArm
                {
                    OFFSET 21.527611 0.000000 0.000000
                    CHANNELS 3 Zrotation Xrotation Yrotation
                    JOINT LeftForeArm
                    {
                        OFFSET 56.353916 0.000000 0.000000
                        CHANNELS 3 Zrotation Xrotation Yrotation
                        JOINT LeftHand
                        {
                            OFFSET 47.774071 0.000000 0.000000
                            CHANNELS 3 Zrotation Xrotation Yrotation
                            End Site
                            {
                                OFFSET 26.556021 0.000000 0.000000
                            }
                        }
                    }
                }
            }
            JOINT RightShoulder
            {
                OFFSET -7.065357 33.973492 -0.192664
                CHANNELS 3 Zrotation Xrotation Yrotation
                JOINT RightArm
                {
                    OFFSET -21.527611 0.000000 0.000000
                    CHANNELS 3 Zrotation Xrotation Yrotation
                    JOINT RightForeArm
                    {
                        OFFSET -56.353916 0.000000 0.000000
                        CHANNELS 3 Zrotation Xrotation Yrotation
                        JOINT RightHand
                        {
                            OFFSET -47.774071 0.000000 0.000000
                            CHANNELS 3 Zrotation Xrotation Yrotation
                            End Site
                            {
                                OFFSET -26.556021 0.000000 0.000000
                            }
                        }
                    }
                }
            }
        }
    }
    JOINT LeftUpLeg
    {
        OFFSET 17.704014 0.000000 0.000000
        CHANNELS 3 Zrotation Xrotation Yrotation
        JOINT LeftLeg
        {
            OFFSET -0.000000 -81.181816 0.000000
            CHANNELS 3 Zrotation Xrotation Yrotation
            JOINT LeftFoot
            {
                OFFSET -0.000000 -62.821102 0.000000
                CHANNELS 3 Zrotation Xrotation Yrotation
                JOINT LeftToeBase
                {
                    OFFSET -0.000000 -11.507608 26.556021
                    CHANNELS 3 Zrotation Xrotation Yrotation
                    End Site
                    {
                        OFFSET -0.000000 0.000000 7.081605
                    }
                }
            }
        }
    }
    JOINT RightUpLeg
    {
        OFFSET -17.704014 0.000000 0.000000
        CHANNELS 3 Zrotation Xrotation Yrotation
        JOINT RightLeg
        {
            OFFSET -0.000000 -81.181816 0.000000
            CHANNELS 3 Zrotation Xrotation Yrotation
            JOINT RightFoot
            {
                OFFSET -0.000000 -62.821102 0.000000
                CHANNELS 3 Zrotation Xrotation Yrotation
                JOINT RightToeBase
                {
                    OFFSET -0.000000 -11.507608 26.556021
                    CHANNELS 3 Zrotation Xrotation Yrotation
                    End Site
                    {
                        OFFSET -0.000000 0.000000 7.081605
                    }
                }
            }
        }
    }
}
MOTION
Frames:    8
Frame Time:    0.008333
-0.457402    153.536911    -53.466618    3.826582    -0.358533    30.656080    5.685689    -2.456257    -3.218777    4.739392    -1.959919    -1.029209    7.190897    -3.002561    -9.009922    0.304950    4.442326    -10.608697    3.251910    10.006755    -13.937200    -37.235092    21.966867    -49.404484    -0.516778    -30.811363    -115.908714    -6.526770    -31.097216    -8.617483    2.334147    8.292057    -7.048852    30.173031    12.355042    42.803047    -4.375813    11.938391    51.623756    -19.166439    7.882697    35.695484    10.874063    6.346262    -0.348603    -11.149875    28.061596    -18.970688    2.160350    -28.600365    44.410049    0.000000    0.000000    0.000000    -24.400747    -21.756357    -8.170696    12.204411    31.404493    -9.298738    5.246295    -3.288605    -13.178474    0.000000    0.000000    0.000000    
-0.702600    153.600128    -53.468071    3.594362    -0.307145    30.616987    5.486524    -2.526280    -3.175659    4.643015    -1.907155    -1.018571    7.111838    -2.942411    -9.002669    0.412522    4.395914    -10.572276    3.213354    9.999268    -13.878026    -37.094223    22.263771    -49.400528    -0.301568    -31.324224    -115.808952    -6.677705    -31.302467    -8.665939    2.259399    8.328299    -6.983472    30.267712    12.443172    42.866852    -4.383861    11.923791    51.696220    -19.125227    7.900063    35.633961    11.075643    6.169862    -0.441487    -11.138510    27.978289    -18.817245    2.062103    -28.566158    44.412205    0.000000    0.000000    0.000000    -24.137339    -21.848106    -8.253418    12.146947    31.157082    -9.301963    5.180233    -3.135711    -13.084112    0.000000    0.000000    0.000000    
-0.955813    153.715515    -53.411449    3.338574    -0.422579    30.587614    5.401796    -2.490378    -3.150783    4.519195    -1.838757    -1.013960    7.078485    -2.871837    -8.993187    0.474535    4.316198    -10.545399    3.191453    9.977432    -13.864704    -37.178841    22.110931    -49.250786    -0.426056    -31.104469    -115.874763    -6.506540    -31.271122    -8.527838    2.241732    8.408967    -6.953972    30.309721    12.523252    42.985809    -4.416170    11.875670    51.767292    -19.030691    7.909821    35.587887    11.408702    6.149540    -0.497381    -11.096328    27.852118    -18.767704    1.863269    -28.585882    44.432487    0.000000    0.000000    0.000000    -23.696215    -21.750555    -8.320195    11.995269    30.806297    -9.280767    5.125047    -2.886554    -12.933101    0.000000    0.000000    0.000000    
-1.218910    153.826004    -53.366280    3.086027    -0.529502    30.540531    5.271380    -2.423790    -3.113650    4.476707    -1.811686    -1.001430    6.954785    -2.827800    -8.997764    0.577824    4.281867    -10.514966    3.110533    9.912264    -13.853057    -37.231144    22.062731    -49.067093    -0.535236    -30.977154    -115.931847    -6.412771    -31.304712    -8.426434    2.152081    8.486230    -6.936933    30.392958    12.575965    43.117271    -4.390549    11.877494    51.827591    -18.918463    7.958340    35.481300    11.737741    6.130444    -0.561063    -11.081025    27.726171    -18.679371    1.717006    -28.532425    44.435257    0.000000    0.000000    0.000000    -23.267229    -21.678156    -8.378402    11.868439    30.470375    -9.195266    5.089015    -2.639772    -12.878396    0.000000    0.000000    0.000000    
-1.484197    153.914337    -53.349464    2.842434    -0.592837    30.470583    5.151302    -2.377221    -3.052140    4.338040    -1.763994    -0.983369    6.862226    -2.832675    -9.007759    0.753844    4.282234    -10.491271    3.118715    9.907838    -13.795419    -37.224285    22.036263    -49.028454    -0.524769    -30.971794    -115.866707    -6.519452    -31.275002    -8.477236    2.145837    8.521350    -6.924820    30.404041    12.700538    43.239021    -4.411421    11.793595    51.882687    -18.882687    7.894849    35.497433    12.036691    6.063447    -0.613886    -11.208983    27.543320    -18.370955    1.709070    -28.387663    44.506046    0.000000    0.000000    0.000000    -22.909668    -21.659855    -8.359779    11.864662    30.137598    -9.119667    4.998664    -2.421818    -12.897248    0.000000    0.000000    0.000000    
-1.765566    153.998505    -53.322971    2.584387    -0.648264    30.395718    5.074107    -2.376977    -3.005235    4.140117    -1.697136    -0.972862    6.883066    -2.729710    -9.005655    0.765487    4.135160    -10.484179    3.104377    9.875917    -13.762003    -37.173042    22.033634    -48.919945    -0.495551    -31.059052    -115.836464    -6.565819    -31.319178    -8.467547    2.117247    8.601900    -6.881980    30.509495    12.733862    43.403221    -4.408316    11.815125    51.899654    -18.819767    7.959463    35.371059    12.350564    6.010439    -0.629300    -11.196678    27.406557    -18.296183    1.584429    -28.358204    44.510384    0.000000    0.000000    0.000000    -22.509087    -21.669399    -8.416672    11.747614    29.839582    -9.066465    4.949307    -2.195211    -12.791740    0.000000    0.000000    0.000000    
-2.053369    154.081421    -53.294640    2.340204    -0.708177    30.316595    4.909124    -2.318124    -2.940609    4.048779    -1.666565    -0.951818    6.754038    -2.788560    -9.022392    0.989471    4.201840    -10.459824    3.069897    9.810370    -13.704598    -37.164982    22.054939    -48.828857    -0.528204    -31.033049    -115.842239    -6.529227    -31.340799    -8.456030    2.103143    8.642135    -6.878443    30.583275    12.762640    43.523788    -4.331051    11.856915    51.978725    -18.844753    7.979534    35.263218    12.660531    5.969370    -0.572611    -11.166073    27.279272    -18.252666    1.463884    -28.301237    44.482643    0.000000    0.000000    0.000000    -22.118769    -21.673120    -8.407976    11.683729    29.534605    -9.029628    4.886330    -1.984547    -12.745616    0.000000    0.000000    0.000000    
-2.329356    154.163879    -53.281593    2.090860    -0.756623    30.246410    4.768226    -2.253546    -2.875618    3.939442    -1.695166    -0.928982    6.649204    -2.714214    -9.045151    1.175330    4.119624    -10.440613    3.052266    9.823599    -13.701777    -37.181137    22.004528    -48.739105    -0.524529    -31.017895    -115.827461    -6.536723    -31.318867    -8.477727    2.064671    8.695949    -6.863540    30.627527    12.900178    43.621986    -4.366244    11.757633    52.049305    -18.758507    7.943514    35.173573    12.959915    5.898819    -0.522741    -11.128783    27.182676    -18.210159    1.329970    -28.276478    44.461334    0.000000    0.000000    0.000000    -21.738445    -21.692255    -8.502937    11.554049    29.259054    -8.956789    4.842268    -1.745983    -12.623927    0.000000    0.000000    0.000000    
